<svg width="185" height="104" viewBox="0 0 185 104" fill="none" xmlns="http://www.w3.org/2000/svg">
<path fill-rule="evenodd" clip-rule="evenodd" d="M33.1266 37.9836C33.3759 38.7647 35.7522 59.6141 35.9627 60.168C36.7936 62.3504 40.1559 57.0384 41.2969 56.5454C41.7124 56.9996 43.3575 59.9464 43.7951 60.6887C44.2327 61.4309 44.6093 62.079 45.0469 62.8157C45.4186 63.5481 45.8444 64.2517 46.321 64.9206L46.7696 65.0425C47.5794 64.6695 48.364 64.2439 49.1182 63.7685C49.9106 63.3475 50.6682 62.8641 51.3838 62.3228L51.489 61.9073C51.1234 60.7607 49.7497 58.7112 49.0905 57.5868C48.6973 56.9221 46.753 53.7813 46.6422 53.3327C47.8054 53.0779 48.9631 52.7123 50.0931 52.4132L51.8103 51.9368C52.5691 51.7263 52.8627 51.0118 52.3642 50.4689C51.8657 49.9261 35.0266 37.8396 34.456 37.2303L33.4147 36.9589L33.1266 37.9836Z" fill="#EF7C00"/>
<path fill-rule="evenodd" clip-rule="evenodd" d="M41.6625 0.433649C47.9784 0.441245 54.2099 1.88383 59.8866 4.65246C65.5633 7.42109 70.5368 11.4434 74.4313 16.4156C78.3258 21.3878 81.0397 27.1799 82.3679 33.3545C83.6961 39.5292 83.604 45.9249 82.0984 52.0587H55.0064C55.1949 51.4777 55.2196 50.8561 55.0779 50.2619C54.9363 49.6678 54.6336 49.1242 54.2032 48.6909C53.8203 48.3288 53.4111 47.9955 52.979 47.6938C52.2922 47.1732 51.5998 46.6636 50.9074 46.154C48.9059 44.6768 46.9044 43.2145 44.9029 41.7669C42.9864 40.3711 41.0716 38.9734 39.1588 37.5738L38.0842 36.7983H67.2479C66.2496 31.961 63.9 27.5059 60.4718 23.95C57.0436 20.3942 52.6774 17.8834 47.8798 16.709C43.0821 15.5345 38.0498 15.7446 33.3668 17.3149C28.6838 18.8851 24.542 21.7512 21.4222 25.5804C18.3023 29.4096 16.3323 34.045 15.7406 38.9488C15.149 43.8525 15.96 48.8234 18.0796 53.2848C20.1992 57.7462 23.5405 61.515 27.7157 64.154C31.8908 66.793 36.7288 68.194 41.668 68.1943H74.1386C69.7258 73.6834 63.9935 77.9643 57.4774 80.637C50.9613 83.3098 43.8741 84.2871 36.8778 83.4778C29.8815 82.6685 23.2045 80.0989 17.4707 76.0091C11.7369 71.9193 7.13333 66.4428 4.09019 60.0912C1.04704 53.7397 -0.336397 46.7204 0.0691352 39.6891C0.474667 32.6578 2.65593 25.8441 6.40913 19.8845C10.1623 13.925 15.365 9.01401 21.531 5.61054C27.697 2.20708 34.6251 0.422172 41.668 0.422577L41.6625 0.433649Z" fill="#004263"/>
<path fill-rule="evenodd" clip-rule="evenodd" d="M104.859 68.3162V81.1504H120.418V77.0736H109.534V75.2235H115.804V71.3849H109.534V69.8782H120.28V68.3162H124.739V81.1504H129.364V76.0156H131.303L136.781 81.1504H143.749L137.457 76.0045C138.358 76.0228 139.239 75.7401 139.961 75.2014C140.304 74.8703 140.57 74.4683 140.742 74.0233C140.913 73.5783 140.985 73.1013 140.952 72.6256V69.4295C140.956 69.0564 140.914 68.6841 140.825 68.3217H145.849V81.156H150.479V75.8605H158.234C159.25 75.9321 160.26 75.646 161.087 75.0518C161.431 74.7199 161.697 74.3169 161.869 73.871C162.04 73.4251 162.112 72.9471 162.078 72.4705V69.4351C162.08 69.062 162.038 68.6901 161.951 68.3272H184.95C184.786 72.2644 183.109 75.9865 180.27 78.7188C177.43 81.451 173.646 82.9827 169.706 82.995H83.3835V68.3162H104.859ZM104.272 54.2356L95.3315 63.1813C94.8786 63.6257 94.3342 63.966 93.7363 64.1784C93.1436 64.3873 92.5201 64.4959 91.8917 64.4997C91.2458 64.5062 90.6059 64.376 90.0139 64.1175C89.4473 63.8759 88.9264 63.5386 88.474 63.1204C88.0362 62.7059 87.6875 62.2065 87.4493 61.6525C87.1972 61.0978 87.0687 60.4949 87.0726 59.8856C87.0727 59.2877 87.1874 58.6954 87.4105 58.1407C87.6462 57.5479 88.0049 57.0117 88.463 56.5676L97.5029 47.4501L88.0364 37.9449C87.5957 37.5159 87.2535 36.9961 87.0339 36.4216C86.5962 35.2752 86.6141 34.0047 87.0837 32.871C87.3352 32.3031 87.6817 31.7824 88.1085 31.3311C88.5376 30.8826 89.0467 30.5181 89.6096 30.2565C90.1806 29.9991 90.8001 29.8669 91.4264 29.8688C92.0419 29.8706 92.6526 29.9774 93.2322 30.1845C93.8307 30.411 94.373 30.7643 94.8219 31.2203L104.239 40.7034L113.528 31.3367C114.447 30.4163 115.689 29.8915 116.99 29.8743C117.632 29.8663 118.268 30.0085 118.845 30.2898C119.414 30.5407 119.931 30.8958 120.369 31.3367C120.801 31.7812 121.141 32.3063 121.371 32.8821C121.613 33.4746 121.738 34.1087 121.737 34.7488C121.73 35.3159 121.627 35.8778 121.432 36.4105C121.223 36.9624 120.898 37.463 120.479 37.8784L110.952 47.4889L119.848 56.407C120.309 56.8533 120.674 57.3885 120.922 57.9801C121.147 58.552 121.263 59.1605 121.266 59.7748C121.265 60.3997 121.137 61.0179 120.889 61.5916C120.638 62.153 120.291 62.6666 119.865 63.1093C119.433 63.5386 118.924 63.8808 118.363 64.1175C117.793 64.3747 117.173 64.5051 116.547 64.4997C115.926 64.5021 115.311 64.3856 114.735 64.1562C114.151 63.9321 113.62 63.5866 113.179 63.1426L104.283 54.2356H104.272ZM129.37 69.9004V72.177H135.712C135.926 72.1815 136.14 72.1591 136.349 72.1105C136.359 72.024 136.359 71.9366 136.349 71.8502V70.2161C136.36 70.1352 136.36 70.0533 136.349 69.9724C136.141 69.9193 135.927 69.8951 135.712 69.9004H129.37ZM150.491 69.9004V71.9942H156.838C157.053 71.9992 157.267 71.975 157.475 71.9222C157.486 71.8375 157.486 71.752 157.475 71.6674V70.2161C157.486 70.1352 157.486 70.0533 157.475 69.9724C157.267 69.9193 157.053 69.8951 156.838 69.9004H150.491ZM142.625 42.8028C142.613 41.0875 142.962 39.3891 143.65 37.8175C144.312 36.3002 145.251 34.9195 146.419 33.7462C147.58 32.5657 148.961 31.6246 150.485 30.9766C152.06 30.3011 153.757 29.9597 155.47 29.974C156.983 29.9571 158.486 30.2219 159.902 30.7551C161.254 31.279 162.52 32.0035 163.657 32.9042C164.792 32.0059 166.054 31.2816 167.402 30.7551C168.801 30.2249 170.287 29.96 171.783 29.974C173.517 29.9654 175.235 30.3064 176.835 30.9766C179.979 32.2656 182.514 34.7038 183.925 37.7953C184.646 39.3576 185.013 41.0599 185 42.7806V59.7914C185.003 60.4103 184.882 61.0236 184.643 61.5946C184.404 62.1656 184.052 62.6827 183.609 63.1149C183.175 63.5304 182.67 63.8661 182.119 64.1064C181.547 64.3438 180.933 64.4643 180.313 64.4609C179.678 64.4659 179.047 64.3454 178.458 64.1064C177.898 63.8691 177.386 63.5333 176.946 63.1149C176.503 62.6827 176.151 62.1656 175.912 61.5946C175.673 61.0236 175.552 60.4103 175.555 59.7914V43.1074C175.555 42.6617 175.446 42.2228 175.24 41.8279C175.023 41.427 174.734 41.07 174.387 40.7754C174.033 40.4758 173.632 40.2363 173.201 40.0664C172.782 39.9118 172.34 39.8293 171.894 39.8227C171.095 39.8154 170.322 40.1034 169.723 40.6314C169.114 41.1392 168.719 41.8568 168.615 42.6421V50.552C168.622 51.1903 168.494 51.8228 168.238 52.4077C167.998 52.9649 167.658 53.4736 167.235 53.9088C166.81 54.3412 166.306 54.6889 165.751 54.9335C165.171 55.1821 164.546 55.3102 163.915 55.3102C163.283 55.3102 162.659 55.1821 162.078 54.9335C161.517 54.6824 161.004 54.3357 160.561 53.9088C160.133 53.4768 159.791 52.9674 159.553 52.4077C159.293 51.8239 159.163 51.1909 159.17 50.552V43.5838C159.164 43.4356 159.14 43.2887 159.098 43.1462V43.1185C159.104 42.6741 159.014 42.2337 158.833 41.8279C158.638 41.4218 158.367 41.0569 158.035 40.7533C157.724 40.4466 157.36 40.1989 156.96 40.0221C156.551 39.8401 156.107 39.7475 155.659 39.7507C154.854 39.7467 154.072 40.0184 153.443 40.5206C152.821 40.9962 152.378 41.6676 152.186 42.4261C152.186 42.5479 152.23 42.6587 152.246 42.764C152.263 42.8692 152.246 42.9855 152.246 43.1074L152.097 59.8246C152.08 60.4625 151.944 61.0916 151.698 61.6802C151.343 62.5209 150.747 63.2375 149.985 63.7394C149.223 64.2412 148.329 64.5058 147.416 64.4997C146.78 64.5047 146.15 64.3842 145.561 64.1452C145 63.9096 144.488 63.5736 144.049 63.1537C143.606 62.7208 143.255 62.2037 143.015 61.6329C142.775 61.0622 142.652 60.4492 142.653 59.8302V42.8028H142.625ZM125.908 21.9976C125.901 21.3125 126.042 20.6341 126.323 20.0091C126.591 19.4088 126.967 18.8625 127.431 18.3972C127.899 17.9245 128.457 17.5494 129.071 17.2936C129.685 17.0378 130.344 16.9065 131.009 16.9071C131.674 16.9072 132.332 17.0389 132.945 17.2947C133.558 17.5504 134.114 17.9251 134.582 18.3972C135.048 18.8613 135.424 19.4078 135.69 20.0091C135.96 20.6334 136.099 21.3064 136.099 21.9865C136.099 22.6667 135.96 23.3397 135.69 23.964C135.427 24.5735 135.051 25.1279 134.582 25.5981C134.114 26.0701 133.558 26.4448 132.945 26.7006C132.332 26.9563 131.674 27.088 131.009 27.0881C130.344 27.0888 129.685 26.9574 129.071 26.7017C128.457 26.4459 127.899 26.0708 127.431 25.5981C126.964 25.1267 126.588 24.5726 126.323 23.964C126.045 23.3461 125.903 22.6754 125.908 21.9976ZM126.201 34.6879C126.2 34.061 126.334 33.4411 126.595 32.871C126.848 32.3103 127.203 31.8014 127.641 31.3699C128.092 30.937 128.618 30.5897 129.192 30.3451C129.792 30.1018 130.434 29.9776 131.081 29.9796C131.707 29.9761 132.327 30.1005 132.904 30.3451C134.018 30.8405 134.901 31.7445 135.369 32.871C135.6 33.4489 135.718 34.0655 135.718 34.6879V60.1404C135.723 60.7712 135.594 61.3961 135.341 61.9738C135.1 62.533 134.756 63.0421 134.327 63.4749C133.897 63.9053 133.387 64.2478 132.826 64.4831C132.256 64.7425 131.636 64.873 131.009 64.8653C130.38 64.8692 129.757 64.7389 129.181 64.4831C128.608 64.2483 128.086 63.9061 127.641 63.4749C127.206 63.0405 126.852 62.5322 126.595 61.9738C126.333 61.398 126.199 60.7727 126.201 60.1404V34.6879Z" fill="#EF7C00"/>
<path d="M27.6716 99.584L28.6918 99.4235C28.7491 99.8323 28.9076 100.146 29.1675 100.363C29.4311 100.581 29.7979 100.69 30.2678 100.69C30.7416 100.69 31.0931 100.595 31.3224 100.404C31.5516 100.209 31.6663 99.9814 31.6663 99.7215C31.6663 99.4885 31.565 99.3051 31.3625 99.1714C31.2211 99.0797 30.8696 98.9631 30.308 98.8217C29.5514 98.6307 29.0261 98.4664 28.7319 98.3289C28.4415 98.1875 28.2199 97.9945 28.0671 97.75C27.9181 97.5017 27.8435 97.2285 27.8435 96.9305C27.8435 96.6592 27.9047 96.4089 28.0269 96.1797C28.153 95.9466 28.3231 95.7536 28.537 95.6008C28.6975 95.4824 28.9153 95.383 29.1904 95.3028C29.4693 95.2187 29.7673 95.1767 30.0844 95.1767C30.562 95.1767 30.9804 95.2455 31.3396 95.383C31.7026 95.5206 31.97 95.7078 32.1419 95.9447C32.3139 96.1778 32.4323 96.4911 32.4973 96.8846L31.4886 97.0221C31.4427 96.7088 31.309 96.4643 31.0874 96.2886C30.8696 96.1128 30.5601 96.0249 30.159 96.0249C29.6852 96.0249 29.347 96.1032 29.1445 96.2599C28.942 96.4166 28.8408 96.6 28.8408 96.8101C28.8408 96.9438 28.8828 97.0642 28.9669 97.1712C29.0509 97.282 29.1827 97.3737 29.3623 97.4463C29.4655 97.4845 29.7692 97.5723 30.2736 97.7099C31.0034 97.9048 31.5115 98.0652 31.7981 98.1913C32.0885 98.3136 32.3158 98.4932 32.4801 98.73C32.6444 98.9669 32.7265 99.2611 32.7265 99.6127C32.7265 99.9565 32.6253 100.281 32.4228 100.587C32.2241 100.889 31.9356 101.124 31.5574 101.292C31.1791 101.456 30.7512 101.538 30.2736 101.538C29.4827 101.538 28.879 101.374 28.4625 101.045C28.0499 100.717 27.7862 100.23 27.6716 99.584ZM45.8347 98.3575C45.8347 97.2304 46.148 96.3955 46.7746 95.853C47.2981 95.4021 47.9361 95.1767 48.6888 95.1767C49.5256 95.1767 50.2095 95.4518 50.7406 96.002C51.2717 96.5484 51.5373 97.3049 51.5373 98.2716C51.5373 99.0548 51.4188 99.6719 51.1819 100.123C50.9488 100.57 50.6069 100.917 50.156 101.166C49.709 101.414 49.2199 101.538 48.6888 101.538C47.8368 101.538 47.1472 101.265 46.6199 100.719C46.0964 100.172 45.8347 99.3853 45.8347 98.3575ZM46.895 98.3575C46.895 99.137 47.065 99.7215 47.4051 100.111C47.7451 100.497 48.173 100.69 48.6888 100.69C49.2008 100.69 49.6269 100.495 49.9669 100.106C50.307 99.7158 50.477 99.1217 50.477 98.3231C50.477 97.5704 50.305 97.0011 49.9612 96.6152C49.6211 96.2255 49.197 96.0307 48.6888 96.0307C48.173 96.0307 47.7451 96.2236 47.4051 96.6095C47.065 96.9954 46.895 97.5781 46.895 98.3575ZM65.2644 101.401V96.1166H64.3531V95.3143H65.2644V94.6666C65.2644 94.2578 65.3007 93.954 65.3733 93.7554C65.4726 93.4879 65.6465 93.272 65.8948 93.1077C66.147 92.9396 66.4985 92.8556 66.9494 92.8556C67.2397 92.8556 67.5607 92.89 67.9122 92.9587L67.7575 93.8585C67.5435 93.8203 67.341 93.8012 67.15 93.8012C66.8367 93.8012 66.615 93.8681 66.4851 94.0018C66.3552 94.1355 66.2903 94.3858 66.2903 94.7526V95.3143H67.4766V96.1166H66.2903V101.401H65.2644ZM82.8028 100.478L82.9518 101.389C82.6614 101.45 82.4016 101.481 82.1724 101.481C81.7979 101.481 81.5075 101.422 81.3012 101.303C81.0949 101.185 80.9497 101.03 80.8656 100.839C80.7816 100.644 80.7396 100.237 80.7396 99.6184V96.1166H79.983V95.3143H80.7396V93.8069L81.7654 93.188V95.3143H82.8028V96.1166H81.7654V99.6757C81.7654 99.9699 81.7826 100.159 81.817 100.243C81.8552 100.327 81.9144 100.394 81.9947 100.444C82.0787 100.493 82.1972 100.518 82.35 100.518C82.4646 100.518 82.6156 100.505 82.8028 100.478ZM97.2062 101.401L95.3436 95.3143H96.4096L97.3781 98.8275L97.7392 100.134C97.7545 100.069 97.8596 99.6509 98.0544 98.8791L99.023 95.3143H100.083L100.995 98.8447L101.298 100.008L101.648 98.8332L102.691 95.3143H103.694L101.791 101.401H100.719L99.7509 97.7557L99.5159 96.7184L98.2837 101.401H97.2062ZM120.802 100.65C120.42 100.975 120.052 101.204 119.696 101.338C119.345 101.471 118.967 101.538 118.562 101.538C117.893 101.538 117.379 101.376 117.02 101.051C116.661 100.723 116.481 100.304 116.481 99.7961C116.481 99.498 116.548 99.2268 116.682 98.9822C116.819 98.7339 116.997 98.5352 117.215 98.3862C117.436 98.2372 117.685 98.1245 117.96 98.048C118.162 97.9945 118.468 97.943 118.877 97.8933C119.71 97.794 120.323 97.6755 120.717 97.538C120.72 97.3966 120.722 97.3068 120.722 97.2686C120.722 96.8483 120.625 96.5522 120.43 96.3803C120.166 96.1472 119.775 96.0307 119.255 96.0307C118.77 96.0307 118.411 96.1166 118.178 96.2886C117.948 96.4567 117.778 96.7566 117.668 97.1884L116.659 97.0508C116.751 96.6191 116.901 96.2714 117.112 96.0077C117.322 95.7403 117.625 95.5359 118.023 95.3945C118.42 95.2493 118.881 95.1767 119.404 95.1767C119.924 95.1767 120.346 95.2378 120.671 95.3601C120.995 95.4824 121.234 95.6371 121.387 95.8243C121.54 96.0077 121.647 96.2408 121.708 96.5235C121.742 96.6993 121.76 97.0164 121.76 97.4749V98.8504C121.76 99.8094 121.781 100.417 121.823 100.673C121.868 100.925 121.956 101.168 122.086 101.401H121.009C120.902 101.187 120.833 100.937 120.802 100.65ZM120.717 98.3461C120.342 98.4989 119.78 98.6288 119.032 98.7358C118.607 98.7969 118.307 98.8657 118.132 98.9421C117.956 99.0185 117.82 99.1312 117.725 99.2802C117.629 99.4254 117.582 99.5878 117.582 99.7674C117.582 100.042 117.685 100.272 117.891 100.455C118.101 100.639 118.407 100.73 118.808 100.73C119.205 100.73 119.559 100.644 119.868 100.472C120.178 100.297 120.405 100.058 120.55 99.7559C120.661 99.5229 120.717 99.179 120.717 98.7243V98.3461ZM135.619 101.401V95.3143H136.547V96.237C136.784 95.8052 137.002 95.5206 137.2 95.383C137.403 95.2455 137.624 95.1767 137.865 95.1767C138.213 95.1767 138.566 95.2875 138.925 95.5091L138.57 96.4662C138.318 96.3172 138.066 96.2427 137.814 96.2427C137.588 96.2427 137.386 96.3115 137.206 96.449C137.027 96.5828 136.899 96.77 136.822 97.0107C136.707 97.3775 136.65 97.7787 136.65 98.2142V101.401H135.619ZM155.971 99.4407L157.037 99.5725C156.869 100.195 156.557 100.679 156.103 101.023C155.648 101.366 155.067 101.538 154.36 101.538C153.47 101.538 152.763 101.265 152.24 100.719C151.72 100.169 151.461 99.3987 151.461 98.4091C151.461 97.3851 151.724 96.5904 152.251 96.0249C152.779 95.4594 153.463 95.1767 154.303 95.1767C155.117 95.1767 155.782 95.4537 156.298 96.0077C156.813 96.5617 157.071 97.3412 157.071 98.3461C157.071 98.4072 157.069 98.4989 157.066 98.6212H152.527C152.565 99.2898 152.754 99.8018 153.094 100.157C153.434 100.512 153.858 100.69 154.366 100.69C154.744 100.69 155.067 100.591 155.335 100.392C155.602 100.193 155.814 99.8763 155.971 99.4407ZM152.584 97.7729H155.982C155.937 97.2609 155.807 96.877 155.593 96.621C155.264 96.2236 154.838 96.0249 154.315 96.0249C153.841 96.0249 153.442 96.1835 153.117 96.5006C152.796 96.8177 152.618 97.2418 152.584 97.7729Z" fill="#1A1A18"/>
</svg>
